<svg width="110" height="25" viewBox="0 0 110 25" fill="none" xmlns="http://www.w3.org/2000/svg">
<path d="M24.7771 17.2262C22.7803 16.3374 21.5292 15.2806 19.2148 13.9416C17.6161 12.9875 15.8811 11.8963 14.6117 11.0926C13.6107 10.4568 12.4923 9.75203 11.5859 9.18076C10.7331 8.64763 10.076 8.26556 9.3984 7.99056C8.13047 7.47576 6.776 7.32983 3.91673 7.3137C3.5332 7.30856 0.454667 7.31443 0 7.31223C1.496 7.59163 2.37087 8.09983 3.76493 8.9637C4.62073 9.4983 5.65913 10.1759 7.10013 11.0376C9.33167 12.3708 11.2347 13.594 13.1875 14.826C14.4569 15.6106 15.7366 16.5075 16.9165 16.9893C18.1845 17.5041 19.5389 17.65 22.3982 17.6662C22.7942 17.6691 25.8515 17.6662 26.3149 17.6676C25.7466 17.5635 25.2567 17.4212 24.7771 17.2269V17.2262Z" fill="black"/>
<path d="M18.2336 0.000976562H8.08133C3.87713 0.000976562 0.408467 3.21224 0 7.31084C2.19267 7.29398 2.56007 7.62544 4.3538 5.31544C5.20667 4.18538 6.55967 3.45351 8.08133 3.45351H18.2336C20.5319 3.45351 22.4459 5.12258 22.8316 7.31158H26.3149C25.9057 3.21224 22.4378 0.000976562 18.2336 0.000976562Z" fill="black"/>
<path d="M8.08133 24.9759H18.2336C22.4378 24.9759 25.9057 21.7646 26.3149 17.666C24.1223 17.6829 23.7549 17.3514 21.9611 19.6614C21.1083 20.7915 19.7553 21.5233 18.2336 21.5233H8.08133C5.78307 21.5233 3.86907 19.8543 3.48333 17.6653H0C0.408467 21.7639 3.87713 24.9751 8.08133 24.9751V24.9759Z" fill="black"/>
<path d="M36.4681 3.45253H46.6203C48.142 3.45253 49.495 4.1844 50.3479 5.31447C52.1416 7.6252 52.5112 7.293 54.7017 7.30987C54.2932 3.21127 50.8245 0 46.6203 0H36.4681C32.2639 0 28.7959 3.21127 28.3867 7.30987H31.8701C32.2558 5.12087 34.1698 3.4518 36.4681 3.4518V3.45253Z" fill="black"/>
<path d="M37.785 16.9877C38.9679 16.5051 40.2431 15.6105 41.514 14.8243C43.4647 13.5938 45.3721 12.3677 47.6014 11.0359C49.0424 10.1743 50.0808 9.49667 50.9366 8.96207C52.3299 8.0982 53.2055 7.58927 54.7015 7.3106C54.2425 7.3128 51.1405 7.3084 50.7848 7.31207C47.9255 7.3282 46.5711 7.47414 45.3031 7.98894C44.6255 8.26394 43.9685 8.64674 43.1156 9.17914C40.7623 10.6553 38.7581 11.9592 36.1467 13.5439C35.211 14.102 34.0399 14.8163 33.2977 15.2907C32.1809 16.005 31.845 16.2763 31.8032 17.0676C31.7951 16.9378 31.7995 16.3731 31.7988 16.2331C31.8259 15.8165 31.7269 7.47047 31.8707 7.3106H28.3873C28.3162 8.42087 28.3162 16.555 28.3873 17.666C28.7958 21.7646 32.2645 24.9759 36.4687 24.9759H46.6209C50.8251 24.9759 54.2931 21.7646 54.7023 17.666H51.2189C50.8332 19.855 48.9192 21.5241 46.6209 21.5241H36.4687C34.1704 21.5241 32.2564 19.855 31.8707 17.666C34.5466 17.6858 36.6095 17.5223 37.7857 16.9884L37.785 16.9877Z" fill="black"/>
<path d="M64.8528 3.45278H75.0051C76.5268 3.45278 77.8798 4.18464 78.7326 5.31471C80.5264 7.62544 80.896 7.29324 83.0864 7.31011C82.6772 3.21224 79.2093 0.000976562 75.0051 0.000976562H64.8528C60.6479 0.000976562 57.18 3.21224 56.7715 7.31084H60.2548C60.6406 5.12184 62.5546 3.45278 64.8528 3.45278Z" fill="black"/>
<path d="M66.1698 16.9877C67.3526 16.5051 68.6279 15.6105 69.8988 14.8243C71.8494 13.5938 73.7568 12.3677 75.9862 11.0359C77.4272 10.1743 78.4656 9.49667 79.3214 8.96207C80.7147 8.0982 81.5903 7.58927 83.0863 7.3106C82.6272 7.3128 79.5252 7.3084 79.1696 7.31207C76.3103 7.3282 74.9558 7.47414 73.6879 7.98894C73.0103 8.26394 72.3532 8.64674 71.5004 9.17914C69.1471 10.6553 67.1429 11.9592 64.5315 13.5439C63.5958 14.102 62.4246 14.8163 61.6825 15.2907C60.5656 16.005 60.2298 16.2763 60.188 17.0676C60.1799 16.9378 60.1843 16.3731 60.1836 16.2331C60.2107 15.8165 60.1117 7.47047 60.2554 7.3106H56.7721C56.701 8.42087 56.701 16.555 56.7721 17.666C57.1806 21.7646 60.6492 24.9759 64.8534 24.9759H75.0057C79.2099 24.9759 82.6778 21.7646 83.087 17.666H79.6037C79.218 19.855 77.304 21.5241 75.0057 21.5241H64.8534C62.5552 21.5241 60.6412 19.855 60.2554 17.666C62.9314 17.6858 64.9942 17.5223 66.1705 16.9884L66.1698 16.9877Z" fill="black"/>
<path d="M101.878 0.000976562H85.1172V3.45278H101.878C104.453 3.45278 106.548 5.54791 106.548 8.12264V16.8537C106.548 19.4284 104.453 21.5236 101.878 21.5236H85.1172V24.9754H101.878C106.357 24.9754 110 21.3322 110 16.8537V8.12264C110 3.64418 106.357 0.000976562 101.878 0.000976562Z" fill="black"/>
</svg>
